# xmcd CD database file
#
# Track frame offsets:
#	150
#	30575
#	59033
#	84942
#	117546
#	138340
#	175946
#	211885
#	240729
#
# Disc length: 3622 seconds
#
# Revision: 0
# Processed by: cddbd v1.5.2PL0 Copyright (c) Steve Scherf et al.
# Submitted via: CDex 1.51
#
DISCID=7b0e2409
DTITLE=Various Artist - Music for your star sign - Virgo
DYEAR=1998
DGENRE=New Age
TTITLE0=Medwyn Goodall - Inner Shaman
TTITLE1=Phil Thornton - Casting Pearls
TTITLE2=Stairway - Aquamarine
TTITLE3=Runestone/ Where Spirits Meet
TTITLE4=Terry Oldfield - March of 1000 Days
TTITLE5=Medwyn Goodall - Eyes of Heaven
TTITLE6=Philip Chapman - Angel Dance
TTITLE7=Anthony Miles - Crystal Deva
TTITLE8=Asha - Lionel's Song
EXTD=YEAR: 1998
EXTT0=
EXTT1=
EXTT2=
EXTT3=
EXTT4=
EXTT5=
EXTT6=
EXTT7=
EXTT8=
PLAYORDER=
